<?xml version="1.0" standalone="no"?>
<!DOCTYPE svg PUBLIC "-//W3C//DTD SVG 20010904//EN"
 "http://www.w3.org/TR/2001/REC-SVG-20010904/DTD/svg10.dtd">
<svg version="1.0" xmlns="http://www.w3.org/2000/svg"
 width="600.000000pt" height="600.000000pt" viewBox="0 0 600.000000 600.000000"
 preserveAspectRatio="xMidYMid meet">

<g transform="translate(0.000000,600.000000) scale(0.100000,-0.100000)"
fill="#000000" stroke="none">
<path d="M380 3680 l0 -160 185 0 186 0 -3 158 -3 157 -182 3 -183 2 0 -160z"/>
<path d="M2140 3680 l0 -160 1755 0 1755 0 0 160 0 160 -1755 0 -1755 0 0
-160z"/>
<path d="M850 3775 c0 -63 14 -71 35 -22 8 19 21 39 29 47 26 21 18 30 -24 30
l-40 0 0 -55z"/>
<path d="M950 3689 c0 -123 -2 -144 -17 -155 -15 -11 -3 -13 85 -14 93 0 126
9 87 24 -12 4 -15 30 -15 146 l0 140 -70 0 -70 0 0 -141z"/>
<path d="M1120 3816 c0 -8 5 -18 11 -22 6 -3 18 -22 25 -41 20 -48 38 -37 42
25 l3 52 -40 0 c-29 0 -41 -4 -41 -14z"/>
<path d="M1246 3821 c-3 -5 1 -11 9 -15 12 -4 15 -29 15 -132 0 -109 -2 -129
-17 -140 -15 -11 -3 -13 85 -14 93 0 126 9 87 24 -12 4 -15 29 -15 131 0 102
3 127 15 131 8 4 15 10 15 15 0 12 -187 12 -194 0z"/>
<path d="M1460 3821 c0 -5 7 -11 15 -15 11 -4 15 -21 15 -61 0 -52 -1 -55 -25
-55 -31 0 -33 -17 -2 -22 19 -3 22 -10 25 -61 2 -44 0 -59 -12 -63 -40 -15 -7
-24 87 -24 87 1 99 3 85 14 -16 11 -18 31 -18 140 0 103 3 128 15 132 8 4 12
10 9 15 -7 12 -194 12 -194 0z"/>
<path d="M1716 3821 c-3 -5 1 -11 9 -15 12 -4 15 -29 15 -132 0 -109 -2 -129
-17 -140 -15 -11 -5 -13 70 -14 l87 0 0 155 0 155 -79 0 c-44 0 -82 -4 -85 -9z"/>
<path d="M1910 3821 c0 -5 14 -14 30 -21 17 -7 39 -23 49 -36 28 -36 41 -30
41 21 l0 45 -60 0 c-33 0 -60 -4 -60 -9z"/>
<path d="M1933 3710 c-13 -15 -23 -31 -23 -33 0 -13 57 -67 63 -61 4 4 7 34 7
66 0 66 -12 73 -47 28z"/>
<path d="M1987 3580 c-16 -17 -40 -33 -53 -36 -45 -12 -24 -24 41 -24 l65 0 0
45 c0 54 -13 58 -53 15z"/>
<path d="M2002 3223 c3 -136 3 -138 26 -141 33 -5 48 12 62 66 14 56 53 127
75 136 11 4 15 16 13 38 l-3 33 -88 3 -88 3 3 -138z"/>
<path d="M2247 3354 c-4 -4 -7 -166 -7 -361 l0 -353 -35 -14 c-39 -17 -45 -40
-16 -56 25 -13 381 -13 415 0 36 13 32 37 -9 54 l-35 15 -2 358 -3 358 -151 3
c-82 1 -153 -1 -157 -4z"/>
<path d="M2620 3328 c0 -22 9 -42 31 -64 20 -21 38 -57 53 -105 20 -64 26 -74
48 -77 43 -5 49 15 46 149 l-3 124 -87 3 -88 3 0 -33z"/>
<path d="M2884 3350 c-12 -5 -25 -13 -28 -18 -8 -13 20 -42 39 -42 31 0 35
-40 35 -334 0 -283 -1 -297 -20 -316 -11 -11 -26 -20 -34 -20 -18 0 -27 -23
-15 -41 6 -11 47 -15 194 -17 l185 -3 -2 398 -3 398 -165 2 c-91 1 -175 -2
-186 -7z"/>
<path d="M3307 3354 c-12 -12 -8 -54 6 -58 106 -31 162 -71 192 -136 16 -37
22 -41 49 -38 l31 3 0 115 0 115 -136 3 c-74 1 -138 -1 -142 -4z"/>
<path d="M3979 3333 c-9 -24 -1 -64 51 -251 34 -123 64 -230 67 -238 4 -11
-10 -14 -75 -14 -64 0 -81 -3 -86 -16 -16 -41 -9 -44 84 -44 89 0 91 0 101
-27 6 -16 13 -44 16 -64 5 -32 2 -39 -21 -54 -32 -21 -34 -51 -3 -59 39 -10
387 -7 408 4 27 15 23 32 -14 55 -31 20 -35 32 -132 365 -55 190 -104 351
-108 358 -6 8 -46 12 -143 12 l-134 0 -11 -27z"/>
<path d="M4640 3351 c-37 -10 -33 -43 7 -53 19 -5 39 -20 49 -37 9 -16 78
-179 154 -362 112 -273 140 -334 156 -334 15 0 33 40 102 229 82 228 83 229
80 315 l-3 86 -29 -85 c-16 -47 -31 -80 -33 -75 -2 6 -34 80 -71 165 l-67 155
-160 2 c-88 1 -171 -2 -185 -6z"/>
<path d="M5250 3005 l0 -356 -35 -20 c-19 -12 -35 -27 -35 -35 0 -28 41 -34
225 -34 109 0 194 4 206 10 28 16 23 40 -11 53 -17 7 -33 21 -36 32 -2 11 -3
155 -2 320 l3 300 33 14 c40 18 41 51 2 62 -14 4 -98 7 -187 8 l-163 1 0 -355z"/>
<path d="M877 3343 c-2 -5 -9 -24 -16 -43 -11 -36 -6 -54 205 -722 5 -17 -6
-18 -129 -18 l-135 0 -11 -31 c-21 -60 -24 -58 146 -61 l157 -3 28 -79 c31
-92 28 -105 -33 -136 -31 -16 -40 -26 -37 -43 6 -45 31 -47 395 -45 301 3 344
5 359 19 22 23 4 54 -40 69 -18 6 -40 18 -49 28 -8 9 -38 87 -65 172 -28 85
-105 323 -172 528 l-121 372 -239 0 c-131 0 -241 -3 -243 -7z"/>
<path d="M3852 2950 c-88 -264 -106 -299 -168 -325 -40 -17 -44 -42 -8 -55 34
-13 210 -13 235 0 29 16 23 36 -18 57 -64 32 -64 31 11 258 l67 206 -16 54
c-8 30 -17 55 -18 55 -1 0 -40 -113 -85 -250z"/>
<path d="M666 2782 c-71 -191 -142 -373 -159 -405 -34 -65 -63 -89 -145 -121
-43 -17 -58 -28 -60 -44 -6 -41 45 -52 250 -52 194 0 233 8 233 45 0 15 -19
29 -70 55 -100 50 -101 45 29 392 58 154 106 291 106 303 0 18 -45 163 -53
171 -2 2 -61 -153 -131 -344z"/>
<path d="M3404 3118 c-5 -7 -18 -31 -29 -53 -11 -22 -32 -46 -47 -53 -41 -19
-39 -66 2 -87 19 -10 39 -34 53 -63 18 -37 27 -47 47 -47 l25 0 0 155 c0 151
-1 155 -22 158 -11 2 -25 -3 -29 -10z"/>
<path d="M4710 2885 c0 -212 -7 -239 -69 -265 -17 -7 -31 -19 -31 -26 0 -23
45 -34 140 -34 134 0 182 29 106 65 -51 25 -66 65 -66 183 0 89 -3 108 -31
173 -17 41 -35 78 -40 84 -5 5 -9 -68 -9 -180z"/>
<path d="M3522 2778 c-29 -56 -106 -126 -154 -139 -24 -6 -49 -13 -55 -15 -7
-2 -13 -17 -13 -34 l0 -31 148 3 147 3 3 103 c2 59 -2 110 -8 122 -16 31 -48
25 -68 -12z"/>
<path d="M1972 2398 c3 -7 20 -64 38 -125 l34 -113 1752 0 1752 0 72 118 c40
64 74 120 77 125 2 4 -836 7 -1862 7 -1489 0 -1866 -3 -1863 -12z"/>
</g>
</svg>
