<?xml version="1.0" standalone="no"?>
<!DOCTYPE svg PUBLIC "-//W3C//DTD SVG 20010904//EN"
 "http://www.w3.org/TR/2001/REC-SVG-20010904/DTD/svg10.dtd">
<svg version="1.0" xmlns="http://www.w3.org/2000/svg"
 width="256.000000pt" height="256.000000pt" viewBox="0 0 256.000000 256.000000"
 preserveAspectRatio="xMidYMid meet">

<g transform="translate(0.000000,256.000000) scale(0.100000,-0.100000)"
fill="#000000" stroke="none">
<path d="M0 1280 l0 -1280 1280 0 1280 0 0 1280 0 1280 -1280 0 -1280 0 0
-1280z m1955 610 c83 -6 160 -13 173 -15 23 -6 23 -6 4 -33 -35 -51 -35 -51
11 -40 23 5 51 18 63 29 20 19 20 19 36 -31 l16 -50 -31 0 c-31 0 -33 -3 -57
-73 -26 -71 -27 -73 -105 -125 -44 -29 -88 -58 -98 -63 -10 -6 10 31 44 83
l63 93 -72 -64 c-39 -35 -93 -94 -118 -132 -38 -55 -55 -71 -88 -82 -23 -8
-94 -31 -158 -52 -107 -34 -141 -56 -107 -67 6 -2 8 -14 4 -31 -7 -25 -11 -27
-57 -27 -60 0 -192 -27 -231 -47 -34 -17 -46 -10 -25 14 32 38 30 43 -12 28
l-41 -14 18 30 c10 17 35 46 56 65 20 19 37 36 37 38 0 2 -51 9 -114 16 -93
10 -131 10 -203 -1 -127 -19 -395 -16 -518 5 -55 10 -102 20 -104 22 -3 2 5
14 17 27 12 13 22 28 22 34 0 13 87 73 105 73 7 0 20 10 29 23 9 13 13 15 10
5 -4 -13 3 -19 33 -27 192 -51 410 -81 645 -88 l197 -6 5 24 c5 21 26 217 26
238 0 14 -133 69 -197 82 -65 12 -73 18 -48 39 16 14 137 5 195 -14 31 -10 36
-16 41 -51 l5 -40 8 30 c18 69 28 85 55 86 47 2 -131 28 -269 39 -177 14 -207
19 -190 30 9 6 3 10 -21 13 -24 3 -17 5 26 7 33 1 130 6 215 10 175 9 481 4
705 -10z m-1305 -141 c0 -12 -110 -199 -117 -199 -4 0 61 121 84 155 7 11 13
30 13 43 0 13 4 20 10 17 6 -3 10 -11 10 -16z m440 -9 c63 -5 126 -12 139 -16
44 -10 4 -22 -99 -29 -54 -4 -189 -24 -301 -45 -112 -21 -205 -36 -207 -35 -2
2 10 33 27 69 l30 66 148 0 c81 0 200 -5 263 -10z m1124 -409 c6 -8 -115 -63
-122 -56 -2 2 -1 12 2 23 9 26 108 54 120 33z m-38 -76 c-15 -14 -33 -40 -41
-57 -8 -18 -14 -27 -15 -20 0 28 30 83 52 92 33 13 34 12 4 -15z m-1753 -1
c48 -9 87 -20 87 -25 0 -5 -5 -9 -12 -9 -8 0 -9 -3 -2 -10 10 -10 347 -72 379
-69 11 1 31 -2 45 -8 14 -5 61 -16 105 -23 44 -6 86 -17 93 -22 14 -12 16
-133 3 -190 l-9 -38 34 0 34 0 0 -49 c0 -70 -10 -75 -133 -67 -56 3 -114 9
-129 12 -26 6 -28 4 -28 -25 0 -20 -5 -31 -14 -31 -15 0 -26 21 -26 50 0 15
-12 21 -57 30 -32 6 -68 14 -79 17 -16 3 -24 -1 -30 -20 l-9 -24 -72 20 c-62
16 -73 22 -73 41 0 18 -12 24 -75 42 -70 19 -75 19 -75 3 0 -28 -11 -49 -26
-49 -10 0 -14 13 -14 40 0 33 -4 42 -25 52 -33 15 -32 30 2 22 22 -6 25 -4 20
10 -4 10 -7 26 -7 36 0 10 -10 21 -22 25 l-23 7 25 7 c20 5 26 14 28 41 2 24
0 31 -6 21 -5 -7 -7 -22 -5 -32 4 -15 0 -19 -21 -19 -14 0 -26 5 -26 10 0 6
-7 10 -15 10 -8 0 -15 5 -15 11 0 6 7 9 15 5 9 -3 15 0 15 8 0 8 -5 16 -12 18
-9 3 -9 12 0 37 7 18 9 44 6 57 -4 13 -3 40 0 59 8 42 18 43 149 19z m1078
-180 c12 -15 9 -16 -31 -9 -61 10 -75 25 -23 25 25 0 46 -6 54 -16z m-153
-151 c-14 -32 -23 -76 -26 -130 l-4 -82 -32 6 c-17 3 -33 7 -35 9 -2 2 1 35 8
74 11 60 19 77 58 120 25 27 46 50 48 50 2 0 -6 -21 -17 -47z m-1028 -55 c0
-27 -34 -19 -38 9 -3 17 1 20 17 16 12 -3 21 -14 21 -25z m680 -168 c0 -15 -7
-20 -25 -20 -18 0 -25 5 -25 20 0 15 7 20 25 20 18 0 25 -5 25 -20z"/>
<path d="M1599 1649 c-23 -72 -64 -129 -93 -129 -14 0 -16 11 -10 83 3 45 7
88 10 95 2 6 -1 12 -6 12 -6 0 -10 -3 -10 -7 0 -5 -7 -62 -15 -128 -8 -65 -15
-131 -15 -146 l0 -27 103 27 102 26 -2 50 c-4 82 -24 215 -33 215 -5 0 -19
-32 -31 -71z"/>
<path d="M410 1143 c-32 -29 -42 -47 -43 -73 l-2 -34 240 -52 c132 -29 240
-52 241 -51 3 8 31 172 30 174 -2 2 -309 57 -383 68 -39 6 -45 4 -83 -32z m39
-38 c2 -2 1 -11 -3 -20 -9 -25 -50 -15 -54 14 -3 21 -1 23 25 16 15 -3 30 -8
32 -10z m371 -95 c0 -15 -7 -20 -25 -20 -18 0 -25 5 -25 20 0 15 7 20 25 20
18 0 25 -5 25 -20z"/>
<path d="M892 1058 c-6 -24 -13 -63 -17 -88 l-7 -45 108 -22 c59 -13 110 -20
113 -17 3 3 7 47 8 97 1 83 0 88 -10 53 -11 -37 -12 -38 -50 -33 -48 7 -50 8
-41 41 5 21 12 26 38 27 21 1 11 6 -34 15 -96 19 -96 19 -108 -28z m188 -103
c0 -35 0 -35 -45 -35 -45 0 -45 0 -45 35 0 35 0 35 45 35 45 0 45 0 45 -35z"/>
<path d="M370 1001 c24 -14 234 -68 353 -90 124 -24 127 -24 127 -11 0 6 -7
10 -16 10 -9 0 -115 23 -235 50 -220 50 -257 57 -229 41z"/>
<path d="M390 951 c0 -10 -3 -26 -6 -35 -7 -19 134 -65 146 -46 8 13 115 -11
160 -35 24 -13 115 -35 145 -35 19 0 21 59 3 64 -7 2 -58 12 -113 21 -83 15
-216 48 -314 80 -17 5 -21 2 -21 -14z"/>
<path d="M875 890 c3 -5 18 -10 32 -10 32 0 28 5 -10 14 -19 4 -26 3 -22 -4z"/>
<path d="M902 819 c3 -33 5 -34 53 -41 28 -3 83 -7 123 -7 l72 -1 0 29 c0 33
-6 35 -163 47 l-88 6 3 -33z"/>
</g>
</svg>
