<?xml version="1.0" standalone="no"?>
<!DOCTYPE svg PUBLIC "-//W3C//DTD SVG 20010904//EN"
 "http://www.w3.org/TR/2001/REC-SVG-20010904/DTD/svg10.dtd">
<svg version="1.0" xmlns="http://www.w3.org/2000/svg"
 width="2000.000000pt" height="2000.000000pt" viewBox="0 0 2000.000000 2000.000000"
 preserveAspectRatio="xMidYMid meet">

<g transform="translate(0.000000,2000.000000) scale(0.100000,-0.100000)"
fill="#000000" stroke="none">
<path d="M10144 18840 c-74 -24 -170 -85 -230 -146 -25 -26 -43 -48 -41 -50 2
-3 20 3 40 11 63 26 41 8 -42 -34 -43 -22 -100 -53 -126 -70 l-47 -30 -52 21
c-28 11 -114 44 -191 73 -77 30 -178 70 -225 91 -113 49 -171 64 -256 64 -112
0 -213 -37 -307 -111 -47 -37 -120 -120 -112 -127 1 -2 21 6 44 17 73 38 64
22 -20 -35 -113 -76 -236 -169 -281 -212 -28 -27 -40 -48 -48 -89 -6 -29 -14
-53 -17 -53 -7 0 2 70 11 91 5 12 -1 20 -26 29 -18 8 -89 39 -159 71 -154 71
-227 86 -337 70 -120 -18 -261 -94 -309 -167 -22 -35 -11 -39 37 -14 59 30 61
18 3 -16 -26 -15 -66 -40 -87 -56 -21 -15 -44 -28 -51 -28 -34 0 -157 -75
-198 -120 -68 -76 -71 -96 -61 -418 5 -152 8 -428 7 -612 -1 -321 -2 -338 -24
-400 -16 -44 -23 -85 -22 -127 1 -35 -2 -63 -7 -63 -5 0 -59 7 -120 15 -61 9
-117 12 -124 8 -8 -4 -37 -29 -64 -55 -28 -27 -52 -43 -54 -36 -7 19 -139 -27
-206 -72 -74 -49 -175 -157 -221 -234 -49 -83 -90 -204 -91 -273 -2 -74 5
-179 15 -223 13 -61 66 -152 121 -210 54 -56 74 -90 32 -54 l-22 19 21 -30
c11 -16 57 -65 102 -107 45 -43 81 -82 81 -88 0 -5 4 -10 9 -10 5 0 27 -30 49
-67 30 -51 111 -139 323 -351 155 -156 294 -289 308 -296 14 -8 42 -17 61 -21
19 -4 74 -31 122 -60 74 -45 191 -95 220 -95 4 0 8 14 8 30 0 17 5 30 10 30 6
0 10 -3 10 -7 0 -5 46 -55 101 -112 129 -133 139 -149 139 -231 0 -36 6 -76
13 -90 11 -23 144 -103 157 -95 3 2 4 35 3 74 0 39 3 74 8 77 5 3 9 -7 9 -23
0 -15 12 -55 26 -88 14 -33 26 -71 25 -85 -1 -44 14 -55 69 -53 28 0 63 4 78
7 20 5 23 4 12 -4 -12 -8 -9 -10 13 -10 32 0 33 -7 7 -38 -18 -21 -48 -26 -60
-10 -3 3 -63 1 -134 -6 -105 -10 -131 -16 -142 -31 -8 -10 -14 -23 -14 -28 0
-9 109 -4 215 9 22 3 35 1 29 -3 -17 -13 -23 -40 -12 -51 8 -8 -10 -32 -62
-82 -54 -52 -70 -74 -60 -80 22 -14 3 -38 -39 -51 -23 -7 -41 -16 -41 -21 0
-4 -5 -8 -11 -8 -7 0 -4 11 7 28 10 15 27 45 37 67 31 62 87 135 105 135 8 0
22 22 22 35 0 5 -78 -5 -129 -16 -78 -17 -120 -49 -190 -142 -52 -70 -111
-178 -85 -156 17 15 121 69 132 69 2 0 -34 -30 -80 -66 -120 -96 -176 -176
-208 -299 -7 -27 -18 -56 -23 -63 -5 -7 -7 -15 -4 -18 3 -3 -12 -38 -33 -77
-66 -122 -104 -283 -195 -817 -14 -85 -30 -171 -35 -190 -22 -84 -90 -614
-105 -815 -9 -121 -20 -268 -26 -327 -5 -59 -14 -218 -19 -355 -6 -136 -15
-331 -20 -433 -16 -299 -24 -1837 -11 -2270 10 -375 45 -1210 55 -1340 3 -36
8 -96 11 -135 8 -97 33 -431 46 -600 10 -148 32 -362 74 -740 24 -222 43 -368
85 -655 11 -74 24 -173 30 -220 6 -47 19 -139 30 -205 10 -66 26 -178 35 -250
9 -71 41 -276 72 -455 30 -179 63 -378 73 -442 43 -272 68 -388 83 -388 11 0
5 325 -14 700 -13 249 -5 1360 11 1750 6 124 14 412 20 640 13 603 27 916 45
1040 2 14 9 97 15 185 6 88 17 250 25 360 8 110 19 286 25 390 6 105 15 244
20 310 6 66 15 188 20 270 6 83 19 251 30 375 11 124 27 299 35 390 8 91 23
251 34 355 11 105 28 267 36 360 9 94 20 202 25 240 9 69 46 402 55 500 3 28
9 84 15 125 5 41 17 136 25 210 29 265 136 948 179 1150 8 36 20 92 26 125 25
130 102 432 141 553 23 70 71 199 106 287 71 176 103 268 103 302 0 12 7 28
15 37 8 8 15 19 15 24 0 6 3 12 8 14 4 2 26 35 49 74 23 39 49 77 59 85 15 12
16 9 9 -41 -4 -30 -16 -95 -27 -145 -27 -124 -53 -307 -74 -522 -13 -134 -22
-183 -31 -183 -7 0 -13 -1 -13 -2 0 -2 -19 -111 -41 -243 -22 -132 -47 -280
-54 -330 -8 -49 -23 -151 -35 -225 -11 -74 -30 -200 -41 -280 -11 -80 -29
-206 -41 -280 -11 -74 -26 -202 -33 -285 -7 -82 -18 -179 -25 -215 -6 -36 -13
-92 -15 -125 -2 -33 -5 -96 -8 -140 -7 -96 -12 -196 -15 -287 -2 -53 -5 -66
-16 -62 -11 4 -14 -6 -14 -43 -2 -246 -7 -334 -19 -344 -8 -8 -10 -17 -4 -28
19 -35 10 -222 -14 -298 -6 -18 -3 -23 9 -23 13 0 15 -6 10 -27 -4 -16 -11
-33 -16 -40 -10 -13 -1 -82 15 -100 6 -9 6 -22 -2 -41 -6 -15 -13 -65 -15
-111 -3 -74 -7 -86 -25 -96 l-22 -11 21 -26 c21 -27 27 -87 11 -104 -11 -10
-17 -271 -6 -296 4 -10 -4 -32 -19 -57 -27 -42 -32 -61 -17 -61 21 0 38 -201
22 -270 -6 -28 -7 -46 -1 -48 15 -6 12 -133 -3 -151 -11 -12 -12 -41 -6 -126
4 -60 5 -114 1 -119 -12 -20 -11 -115 2 -125 9 -8 10 -24 5 -58 -15 -91 -21
-112 -34 -123 -10 -8 -11 -20 -4 -43 15 -52 11 -199 -6 -221 -16 -21 -21 -51
-7 -43 4 3 7 -5 8 -16 0 -12 2 -29 5 -37 2 -8 -6 -19 -18 -24 -41 -19 -38 -35
9 -69 15 -10 15 -19 7 -62 -6 -27 -12 -95 -13 -150 -2 -89 -16 -158 -37 -175
-12 -10 -19 -58 -9 -62 5 -2 18 -26 28 -53 15 -40 17 -62 10 -110 -7 -52 -13
-119 -21 -240 -2 -16 3 -42 10 -56 11 -24 10 -27 -7 -32 -15 -4 -20 -14 -20
-41 0 -22 -6 -38 -17 -44 -13 -8 -16 -22 -14 -68 1 -33 7 -60 12 -62 15 -6 10
-22 -6 -22 -8 0 -15 -4 -15 -10 0 -5 7 -10 15 -10 8 0 15 -7 15 -16 0 -8 -4
-12 -10 -9 -5 3 -10 1 -10 -4 0 -6 5 -11 10 -11 15 0 12 -58 -5 -84 -9 -14
-16 -48 -17 -82 -1 -43 -6 -65 -20 -80 -17 -20 -18 -22 -2 -35 13 -11 18 -11
21 -1 3 6 9 12 15 12 7 0 7 -4 0 -12 -5 -7 -13 -34 -16 -60 -6 -39 -4 -48 7
-48 24 0 27 -26 6 -48 -10 -12 -19 -28 -19 -37 0 -8 -5 -15 -10 -15 -6 0 -8
-10 -4 -24 4 -16 0 -34 -10 -48 -20 -28 -20 -48 -1 -48 12 0 15 -16 17 -72 3
-110 0 -142 -17 -154 -10 -8 -13 -21 -9 -40 4 -22 0 -34 -15 -48 -20 -18 -20
-19 -1 -56 19 -36 17 -80 -2 -80 -6 0 -7 -17 -3 -42 10 -62 10 -123 1 -203
-11 -104 -16 -122 -26 -104 -6 9 -7 -5 -3 -37 5 -45 3 -53 -15 -63 -14 -8 -19
-17 -14 -33 3 -13 10 -26 15 -30 6 -4 4 -13 -6 -23 -10 -9 -17 -26 -17 -37 0
-12 -8 -30 -17 -40 -15 -17 -15 -21 0 -54 9 -19 17 -41 17 -49 0 -8 7 -15 15
-15 8 0 15 -9 15 -20 0 -11 -7 -20 -15 -20 -8 0 -15 -9 -15 -20 0 -11 5 -20
11 -20 11 0 39 -24 39 -34 0 -3 -9 -6 -20 -6 -11 0 -20 -6 -20 -12 0 -9 -4 -8
-10 2 -5 8 -10 13 -11 10 0 -3 -2 -16 -5 -29 -2 -14 0 -27 5 -30 5 -3 11 -21
12 -39 3 -27 -1 -35 -21 -45 -28 -14 -41 -57 -17 -57 8 0 17 -10 20 -22 2 -13
8 -31 12 -40 5 -14 2 -18 -14 -18 -24 0 -27 -20 -9 -53 16 -30 10 -116 -9
-135 -13 -13 -14 -33 -8 -124 6 -91 4 -110 -9 -124 -9 -8 -16 -24 -16 -34 0
-10 -4 -22 -10 -25 -15 -9 -12 -25 5 -25 8 0 15 -9 15 -20 0 -11 -4 -20 -10
-20 -5 0 -10 -18 -10 -40 0 -22 5 -40 10 -40 6 0 10 -16 10 -35 0 -25 -4 -35
-15 -35 -9 0 -18 -13 -22 -31 -3 -17 -14 -36 -24 -42 -11 -7 -19 -17 -19 -24
0 -7 -7 -13 -15 -13 -11 0 -15 -12 -15 -44 0 -54 8 -76 26 -76 11 0 14 -22 14
-105 0 -58 5 -111 10 -118 45 -53 50 -61 41 -70 -13 -13 -2 -37 15 -37 23 0
36 50 31 112 -3 32 -2 60 3 63 4 2 10 28 13 57 23 201 28 204 87 49 37 -95 79
-147 166 -207 42 -29 63 -53 85 -95 15 -31 49 -75 74 -97 193 -169 780 -309
1525 -363 214 -15 812 -6 1005 15 501 55 793 125 1019 244 76 40 169 123 181
162 11 36 31 56 107 106 77 52 118 99 153 178 14 31 29 56 34 56 9 0 15 -44
27 -195 8 -111 19 -125 94 -125 84 0 91 18 77 180 -5 60 -11 78 -27 89 -13 9
-20 24 -20 46 0 38 -18 95 -37 114 -9 9 -12 24 -8 42 4 16 1 46 -6 66 -7 21
-12 59 -10 86 3 42 1 47 -18 47 -20 0 -21 4 -16 55 2 30 10 64 17 75 11 18 10
23 -5 31 -14 8 -16 18 -12 43 4 21 2 38 -7 47 -33 37 -41 67 -45 174 -4 95 -2
115 15 147 16 30 19 51 14 103 -3 45 -1 65 7 65 6 0 11 14 11 30 0 23 -4 30
-20 30 -11 0 -20 4 -20 9 0 5 -9 11 -20 14 -11 3 -20 12 -20 21 0 9 8 16 20
16 16 0 20 7 20 30 0 23 -4 30 -20 30 -29 0 -26 45 6 77 23 23 24 27 10 35
-12 7 -16 24 -16 63 0 55 -13 105 -31 116 -6 3 -11 60 -11 135 -1 97 -5 133
-16 146 -10 12 -12 30 -8 65 6 45 -3 124 -19 168 -4 13 -4 15 2 8 6 -9 13 2
22 32 7 26 20 47 31 50 18 6 30 44 30 96 0 21 6 29 23 32 l22 4 -22 2 c-13 0
-23 7 -24 14 0 6 -3 61 -5 122 -3 60 -10 112 -15 116 -5 3 -9 56 -8 120 1 63
0 122 -1 132 0 9 6 24 14 33 22 21 21 26 -14 69 -23 29 -28 41 -19 51 17 21 2
165 -17 157 -17 -6 -19 38 -3 68 7 15 7 24 -1 34 -17 20 -10 367 8 373 7 2 12
22 12 53 0 45 -2 49 -24 49 -20 0 -25 6 -28 38 -3 22 1 49 9 66 9 17 13 43 10
62 -5 28 -2 33 18 38 27 7 24 37 -8 69 -19 19 -19 20 -2 34 14 10 15 13 4 14
-8 1 -3 5 11 9 24 8 24 8 -6 9 -24 1 -34 8 -47 36 -9 19 -12 37 -7 40 5 3 11
1 15 -5 15 -25 27 -8 21 32 -3 24 -6 55 -6 70 0 22 -4 28 -20 28 -26 0 -36 24
-22 53 35 74 37 89 14 108 -17 13 -24 33 -28 77 -6 58 -6 59 20 66 22 5 25 10
16 25 -5 11 -11 39 -12 64 -2 25 -5 45 -8 45 -18 -1 -23 4 -11 11 9 6 16 33
19 68 2 32 8 63 12 68 5 6 11 30 15 55 6 43 5 45 -24 57 -33 12 -41 40 -16 49
8 4 15 16 15 28 0 11 6 32 13 46 7 14 12 31 11 38 -1 6 -2 17 -3 22 0 6 -7 9
-13 8 -12 -3 -14 23 -11 202 1 14 1 70 2 125 0 55 3 110 6 123 6 24 -19 32
-29 10 -8 -18 1 133 9 153 3 10 2 20 -4 24 -6 3 -11 22 -11 41 0 19 -9 52 -19
73 -13 25 -16 42 -10 52 5 8 9 36 9 62 0 26 7 58 15 71 13 19 13 25 2 34 -14
12 -16 131 -2 165 4 9 4 25 0 35 -5 9 -7 28 -6 41 2 13 -2 27 -9 31 -20 13
-18 150 3 194 15 32 17 43 7 66 -7 17 -11 74 -9 147 1 65 -1 165 -5 223 -7
126 -8 130 -16 130 -3 0 -7 10 -8 23 0 12 -4 42 -7 67 -4 25 -8 65 -9 90 -6
103 -19 187 -33 213 -8 16 -13 34 -10 40 2 7 -2 57 -9 112 -8 55 -18 143 -23
195 -5 52 -12 102 -15 110 -17 45 -83 652 -106 965 -10 147 -21 220 -76 555
-19 113 -48 293 -65 400 -35 223 -36 227 -49 214 -5 -5 -12 -115 -14 -244 -6
-278 -14 -510 -21 -635 -3 -49 -8 -142 -10 -205 -3 -63 -10 -153 -15 -200 -11
-91 -51 -483 -75 -742 -8 -86 -17 -167 -19 -180 -10 -46 -28 -326 -27 -426 1
-56 -3 -110 -8 -120 -9 -18 -21 -131 -28 -272 -1 -36 -7 -101 -12 -145 -10
-80 -31 -347 -37 -460 -1 -33 -5 -67 -7 -75 -3 -8 -10 -85 -16 -170 -7 -85
-16 -191 -21 -235 -5 -44 -14 -127 -20 -185 -6 -58 -15 -143 -21 -190 -5 -47
-9 -101 -8 -122 2 -20 -3 -43 -9 -51 -8 -9 -10 -29 -6 -53 4 -25 -2 -70 -15
-125 -24 -100 -24 -102 -11 -94 6 4 10 -7 10 -27 0 -26 -3 -30 -11 -18 -8 11
-9 7 -5 -19 4 -20 1 -40 -6 -48 -8 -10 -9 -17 -1 -21 7 -5 8 -25 3 -62 -8 -52
-37 -256 -61 -435 -6 -44 -15 -102 -20 -128 -5 -26 -9 -63 -9 -82 0 -19 -5
-37 -11 -40 -5 -4 -9 -19 -7 -33 4 -50 -14 -142 -28 -142 -9 0 -13 -13 -12
-43 0 -23 -9 -91 -21 -152 -11 -60 -28 -159 -36 -220 -17 -134 -31 -224 -51
-335 -9 -47 -22 -128 -30 -180 -7 -52 -24 -153 -38 -225 -13 -71 -36 -193 -50
-270 -59 -317 -182 -918 -216 -1062 -11 -46 -31 -133 -45 -195 -13 -62 -47
-210 -75 -328 -27 -118 -55 -235 -60 -260 -6 -25 -57 -236 -114 -470 -165
-672 -202 -828 -226 -943 -13 -59 -26 -107 -30 -107 -4 0 -11 35 -15 78 -5 49
-10 70 -15 58 -6 -18 -7 -18 -14 5 -16 56 -269 1063 -292 1159 -13 58 -26 111
-29 118 -20 53 -219 977 -290 1347 -20 99 -42 212 -50 250 -8 39 -19 97 -24
130 -11 69 -33 184 -92 485 -23 118 -45 235 -49 260 -4 25 -15 90 -24 145 -18
106 -45 277 -71 435 -16 104 -54 358 -84 570 -11 74 -29 198 -41 275 -11 77
-22 156 -24 175 -2 19 -22 179 -44 355 -23 176 -46 363 -52 415 -46 415 -45
406 -120 1180 -57 580 -123 1341 -149 1715 -17 231 -35 481 -41 555 -6 74 -13
293 -14 485 -3 309 -3 323 4 125 4 -124 8 -240 9 -259 0 -19 4 -31 7 -28 4 4
9 190 11 414 2 225 8 426 13 449 5 22 7 64 3 92 -3 32 -2 52 4 52 6 0 8 29 5
75 -3 45 -1 75 5 75 6 0 12 -81 16 -197 7 -222 32 -649 47 -793 5 -52 12 -135
15 -185 3 -49 12 -144 20 -210 7 -66 23 -214 35 -330 11 -115 30 -284 40 -375
11 -91 31 -268 45 -395 42 -387 55 -499 60 -530 3 -16 12 -88 21 -160 34 -292
55 -464 88 -730 19 -154 49 -399 66 -545 65 -552 117 -950 171 -1310 41 -275
48 -321 99 -630 17 -102 48 -304 70 -450 41 -278 93 -619 141 -930 5 -36 27
-173 49 -305 21 -132 50 -321 65 -420 14 -99 28 -193 30 -210 22 -136 79 -520
90 -600 40 -288 42 -315 15 -315 -6 0 -8 5 -4 11 4 7 1 10 -7 7 -8 -3 -14 -10
-13 -16 1 -7 2 -21 3 -33 0 -12 5 -17 12 -13 8 4 9 -1 5 -17 -3 -13 3 -6 14
16 l20 40 -4 -39 c-3 -22 -10 -43 -17 -47 -12 -7 -9 -39 15 -159 9 -41 18 -91
21 -110 12 -77 44 -157 57 -138 6 10 8 8 8 -5 0 -10 -6 -20 -13 -23 -11 -4
-12 -19 -5 -71 5 -37 14 -75 19 -85 6 -10 7 -24 3 -30 -5 -7 -3 -8 6 -3 10 6
12 1 8 -18 -3 -15 1 -50 9 -79 7 -29 16 -71 19 -93 4 -22 10 -47 14 -55 5 -9
14 -52 20 -98 7 -45 16 -80 20 -77 13 8 19 -22 8 -33 -8 -8 -8 -22 0 -50 7
-22 12 -53 12 -70 0 -39 16 -50 24 -17 4 14 11 23 16 20 6 -3 10 1 10 9 0 9
-4 16 -9 16 -5 0 4 14 20 31 16 17 29 36 29 41 0 84 98 747 140 948 5 25 14
81 19 125 6 44 26 161 45 260 19 99 51 277 71 395 20 118 38 222 40 230 4 14
60 310 89 475 8 44 22 132 31 195 9 63 25 162 36 220 10 58 37 224 59 370 22
146 51 335 65 420 13 85 34 223 45 305 20 142 94 635 125 830 8 50 24 151 35
225 35 227 79 501 95 585 51 285 161 1140 220 1714 43 419 79 726 109 946 27
191 43 325 51 435 3 41 10 127 16 190 5 63 16 203 24 310 8 107 19 238 25 290
48 456 62 1034 34 1477 -8 140 -13 260 -11 266 2 7 11 -1 18 -18 7 -16 16 -32
19 -35 18 -16 79 -121 132 -225 172 -343 291 -674 348 -970 43 -226 49 -262
56 -325 3 -36 12 -95 20 -133 13 -63 31 -195 55 -397 5 -47 14 -114 19 -150 5
-36 14 -117 20 -180 6 -63 15 -142 20 -175 5 -33 16 -125 25 -205 9 -80 20
-161 25 -180 5 -20 12 -69 16 -110 3 -41 10 -91 15 -110 8 -35 16 -96 45 -355
8 -77 22 -176 29 -220 8 -44 21 -118 30 -165 31 -178 79 -602 135 -1205 24
-258 50 -512 84 -830 14 -126 28 -264 31 -305 3 -41 12 -138 20 -215 22 -225
51 -957 60 -1550 7 -463 -22 -1597 -50 -1935 -8 -102 -19 -268 -25 -370 -5
-102 -12 -214 -14 -250 -3 -36 -3 -56 0 -45 3 11 12 40 19 65 73 228 270 1333
354 1980 17 129 38 285 46 345 14 105 36 304 70 625 35 340 60 637 90 1080 56
835 66 1993 30 3570 -22 963 -88 1670 -211 2255 -40 191 -106 404 -136 438
-18 20 -19 21 -14 2 9 -37 28 -256 23 -261 -3 -3 -15 -3 -27 1 -12 4 -19 9
-16 12 7 7 -37 85 -76 134 -15 20 -28 42 -28 48 0 6 -14 18 -31 27 -28 14 -30
19 -24 47 3 18 6 44 6 60 0 15 -1 62 -2 105 -2 56 2 85 14 107 26 46 21 72
-25 139 -58 84 -94 161 -107 228 -12 54 -17 61 -129 169 -64 63 -122 125 -128
139 -9 20 -31 33 -104 60 -51 19 -95 41 -98 48 -2 7 23 91 56 185 157 440 286
918 332 1222 6 39 18 104 26 145 20 101 74 467 73 499 0 21 -6 14 -30 -34 -16
-33 -37 -67 -47 -75 -11 -9 -23 -28 -28 -42 -10 -29 -34 -62 -103 -139 -42
-48 -46 -49 -95 -48 -28 1 -55 7 -59 13 -6 8 -10 7 -14 -1 -2 -7 -16 -13 -29
-13 -13 0 -24 -4 -24 -10 0 -5 -6 -10 -13 -10 -8 0 -22 -18 -32 -40 -24 -54
-31 -43 -12 22 8 29 23 82 32 118 9 36 23 88 31 115 7 28 19 75 25 105 6 30
22 97 35 148 27 103 29 129 13 134 -9 3 -9 9 -1 23 6 11 14 33 17 49 5 23 8
27 16 15 6 -9 7 3 4 36 -3 35 -2 41 3 20 8 -30 8 -30 14 -6 4 14 4 30 -1 35
-14 18 -20 57 -8 49 6 -4 8 0 4 10 -3 9 -1 19 5 23 7 5 9 -4 4 -31 -5 -25 -4
-35 3 -30 6 3 11 21 11 40 0 18 5 35 10 37 6 2 12 30 13 63 2 33 8 69 14 80
22 42 42 177 54 353 l12 184 63 74 c35 41 68 84 74 94 6 11 17 20 25 20 14 0
19 -10 30 -67 7 -37 12 -39 43 -17 30 21 29 65 -3 101 -21 24 -26 26 -36 13
-9 -13 -10 -12 -5 2 3 10 2 19 -3 22 -4 3 -8 26 -10 53 -5 106 -54 245 -81
228 -4 -3 -11 -21 -15 -42 -8 -44 -47 -124 -69 -142 -21 -18 -49 -6 -42 17 5
14 -7 25 -57 50 -81 43 -175 96 -196 111 -22 16 -60 38 -97 55 -17 8 -36 22
-44 30 -7 9 -25 16 -41 16 -16 0 -29 2 -29 5 0 3 7 49 16 103 27 165 22 446
-12 596 -12 52 14 19 31 -39 9 -31 21 -55 29 -55 7 0 21 -10 32 -21 17 -19 59
-50 113 -84 9 -6 50 -33 92 -62 41 -28 93 -59 115 -68 21 -9 60 -30 86 -46 26
-17 52 -28 58 -24 30 19 -26 219 -87 313 -56 83 -114 128 -343 260 -52 30
-162 101 -245 157 -236 160 -318 191 -480 182 -114 -6 -206 -35 -290 -92 -36
-25 -73 -45 -83 -45 -10 0 -158 61 -328 135 -171 74 -337 141 -369 150 -80 20
-186 18 -261 -5z m260 -30 c60 -23 102 -58 56 -47 -41 9 -140 51 -140 60 0 12
27 8 84 -13z m67 -83 c40 -27 51 -57 21 -57 -27 0 -155 40 -149 47 3 2 33 -3
68 -11 70 -18 86 -15 41 8 -17 9 -34 20 -37 26 -11 18 21 11 56 -13z m-1402 2
c21 -6 48 -19 62 -30 22 -17 22 -19 4 -19 -26 0 -111 24 -155 44 l-35 15 44 1
c24 0 60 -5 80 -11z m1565 -86 c19 -21 33 -39 32 -41 -5 -5 -59 27 -67 40 -9
14 -12 38 -4 38 3 0 20 -17 39 -37z m982 22 c27 -8 59 -23 72 -33 22 -17 22
-18 2 -18 -11 0 -20 3 -20 7 0 4 -15 10 -32 14 -69 13 -118 28 -118 36 0 13
41 11 96 -6z m-2521 -31 c6 -1 21 -7 35 -13 21 -10 17 -11 -28 -6 -29 3 -60 9
-70 12 -14 6 -13 8 8 13 14 4 30 4 35 1 6 -3 15 -6 20 -7z m2564 -25 c36 -13
37 -15 16 -36 -14 -13 -22 -13 -82 9 -62 21 -65 23 -37 29 46 10 69 10 103 -2z
m-932 -81 c74 -112 95 -168 40 -105 -40 44 -47 46 -47 10 0 -38 -7 -25 -24 43
-25 102 -27 114 -19 114 5 0 27 -28 50 -62z m1066 40 c47 -31 125 -114 158
-167 27 -41 74 -169 66 -177 -2 -2 -20 29 -41 69 -21 40 -43 75 -49 79 -18 11
-27 -2 -21 -30 11 -44 -5 -19 -24 39 -15 43 -27 60 -62 83 -24 17 -38 32 -32
34 7 2 3 17 -13 43 -37 57 -33 63 18 27z m-2383 -135 c0 -7 4 -13 8 -13 5 0
14 -12 21 -26 9 -20 9 -25 -1 -22 -7 2 -17 14 -23 26 -5 12 -17 25 -27 27 -15
5 -39 54 -38 79 1 15 60 -55 60 -71z m802 0 c27 -26 38 -63 18 -63 -21 0 -9
-21 18 -31 41 -15 105 -49 123 -65 15 -14 15 -19 -2 -65 -20 -51 -48 -150 -95
-329 -38 -145 -41 -158 -64 -260 -11 -52 -29 -129 -40 -170 -11 -41 -24 -100
-29 -130 -8 -48 -23 -120 -77 -355 -7 -33 -13 -84 -14 -113 0 -52 0 -52 -27
-46 -16 4 -44 15 -63 24 -19 9 -71 30 -115 45 -44 15 -85 33 -92 39 -9 8 -7
28 7 86 11 41 45 190 75 330 31 140 65 293 76 340 11 47 29 123 40 170 11 47
28 121 39 165 35 146 58 249 71 318 9 46 17 67 27 67 13 0 12 3 -1 18 -22 24
-21 38 1 52 27 17 94 2 124 -27z m-193 -9 c44 -9 38 -21 -10 -21 -24 0 -45 -6
-50 -14 -7 -11 -9 -11 -9 2 0 9 -10 21 -22 27 -21 10 -19 11 18 11 23 1 56 -2
73 -5z m-1188 -37 l34 -14 -27 -13 c-15 -7 -25 -17 -22 -21 3 -5 -2 -9 -11 -9
-21 0 -37 -46 -29 -83 5 -24 3 -29 -9 -24 -18 7 -27 -19 -27 -80 0 -23 -4 -45
-10 -48 -5 -3 -10 -29 -10 -56 0 -28 -4 -58 -10 -68 -5 -10 -11 -54 -13 -97
-5 -89 -25 -243 -34 -257 -3 -5 -7 -28 -9 -50 -2 -23 -9 -72 -16 -109 -9 -53
-15 -68 -31 -72 -36 -9 -41 5 -24 74 4 14 9 93 11 175 3 85 15 209 27 285 13
74 24 162 25 195 1 33 5 67 7 75 18 52 7 170 -15 170 -16 0 -7 39 10 44 30 9
147 -2 183 -17z m-916 -11 c25 -11 35 -20 29 -26 -11 -11 -150 25 -169 43 -16
15 95 1 140 -17z m3435 -66 c45 -23 52 -32 57 -77 4 -36 0 -38 -59 -24 -22 5
-36 5 -32 0 8 -13 -10 -11 -23 2 -9 9 -14 5 -19 -15 -8 -32 -24 -34 -25 -3 -1
16 -2 18 -6 5 -2 -10 -11 -18 -18 -18 -7 0 -21 -3 -30 -6 -15 -6 -15 -4 -2 29
l15 35 -31 8 c-30 7 -28 8 21 12 37 2 52 7 52 18 0 16 35 54 50 54 6 0 28 -9
50 -20z m-3395 0 c7 -12 -48 -12 -85 0 -20 6 -14 8 27 9 28 1 55 -3 58 -9z
m1528 -87 c-13 -54 -37 -163 -53 -243 -29 -143 -57 -251 -44 -170 34 217 78
436 96 483 23 60 24 22 1 -70z m2437 77 c0 -5 -4 -10 -10 -10 -5 0 -10 5 -10
10 0 6 5 10 10 10 6 0 10 -4 10 -10z m-550 -110 c48 -14 147 -75 199 -124 24
-23 41 -35 37 -28 -4 7 -2 20 5 28 7 8 22 36 34 62 l22 47 7 -30 c14 -60 37
-113 51 -119 8 -3 15 -15 15 -27 0 -17 3 -19 13 -10 11 8 19 5 36 -13 21 -22
30 -24 85 -21 60 3 62 2 75 -26 7 -16 16 -27 19 -25 4 2 4 -48 1 -112 -6 -122
-26 -188 -66 -210 -14 -8 -16 -24 -15 -87 2 -42 -4 -103 -12 -134 -47 -181
-60 -252 -81 -421 -15 -122 -21 -156 -52 -290 -24 -105 -33 -130 -50 -130 -9
0 -50 20 -92 43 -42 24 -105 59 -141 78 -82 43 -96 55 -81 73 7 8 16 40 22 73
11 69 46 250 59 313 5 25 18 90 28 145 11 56 24 110 29 120 6 11 14 40 18 65
3 25 20 84 36 132 16 48 29 96 29 107 0 10 7 21 15 25 8 3 15 13 15 23 0 10
11 40 25 66 14 26 28 69 31 96 4 43 1 53 -28 89 -38 47 -52 53 -46 17 3 -13 2
-22 -2 -20 -4 3 -10 -3 -14 -13 -3 -9 -17 -46 -30 -82 -54 -147 -76 -216 -76
-243 0 -15 -7 -38 -15 -51 -15 -22 -39 -117 -51 -196 -5 -37 -14 -70 -63 -235
-16 -55 -29 -111 -30 -125 0 -36 -26 -153 -40 -179 -7 -12 -10 -35 -6 -51 12
-57 6 -56 -195 10 -52 17 -108 37 -125 44 -16 7 -50 13 -74 15 -25 1 -48 4
-53 7 -14 9 3 25 20 20 10 -2 35 -7 57 -11 l40 -6 14 58 c7 32 30 110 50 173
113 344 153 491 191 685 22 112 46 196 85 300 14 38 26 80 27 92 3 26 2 26 48
13z m-3748 -27 c4 -2 2 -16 -4 -31 -9 -19 -11 -107 -9 -297 3 -327 -22 -615
-58 -660 -15 -18 -15 -19 2 -6 10 8 17 9 17 3 0 -6 -9 -13 -19 -17 -13 -4 -18
-12 -14 -22 4 -11 2 -14 -5 -9 -6 4 -11 19 -11 34 0 15 -4 52 -10 83 -7 36 -8
74 -2 105 5 27 5 57 0 71 -8 21 -14 154 -24 525 -2 90 -9 166 -15 178 -17 32
-6 48 37 53 37 3 101 -2 115 -10z m605 -45 c-3 -8 -6 -5 -6 6 -1 11 2 17 5 13
3 -3 4 -12 1 -19z m3750 -160 c-3 -7 -5 -2 -5 12 0 14 2 19 5 13 2 -7 2 -19 0
-25z m-827 -122 c0 -11 -19 -15 -25 -6 -3 5 1 10 9 10 9 0 16 -2 16 -4z m870
-436 c0 -37 -20 -54 -36 -32 -16 21 -17 33 -4 68 10 26 11 26 25 8 8 -10 15
-30 15 -44z m-4478 -322 c10 -29 9 -118 -1 -119 -56 -6 -56 -6 -52 41 4 55 6
60 34 61 12 0 16 3 10 6 -15 5 -17 23 -4 23 5 0 11 -6 13 -12z m1188 -88 c0
-38 12 -52 25 -30 11 18 22 10 28 -19 4 -19 14 -32 29 -36 45 -14 138 -59 138
-68 0 -9 -38 0 -55 13 -5 4 -57 20 -113 36 l-104 27 6 31 c8 40 29 86 38 86 5
0 8 -18 8 -40z m950 -16 l0 -46 -32 6 c-17 3 -33 8 -34 9 -2 2 2 20 8 40 9 29
16 37 35 37 21 0 23 -4 23 -46z m-1100 -19 c0 -7 6 -16 13 -18 6 -3 -4 -6 -24
-6 -21 -1 -42 5 -49 14 -10 12 -10 15 4 15 9 0 16 4 16 9 0 5 9 7 20 4 11 -3
20 -11 20 -18z m637 3 c-3 -8 -6 -5 -6 6 -1 11 2 17 5 13 3 -3 4 -12 1 -19z
m-10 -50 c-3 -7 -5 -2 -5 12 0 14 2 19 5 13 2 -7 2 -19 0 -25z m176 25 c-7 -2
-21 -2 -30 0 -10 3 -4 5 12 5 17 0 24 -2 18 -5z m-186 -65 c-3 -8 -6 -5 -6 6
-1 11 2 17 5 13 3 -3 4 -12 1 -19z m-1680 6 c-3 -4 0 -13 8 -21 20 -19 19 -69
-1 -77 -23 -9 -67 -7 -84 4 -12 7 -11 14 6 47 12 22 27 37 37 37 9 -1 14 2 11
7 -3 5 3 9 12 9 10 0 15 -3 11 -6z m233 -99 c72 -12 84 -27 15 -20 -33 3 -75
9 -94 12 l-34 6 24 13 c13 7 28 9 34 4 5 -4 30 -11 55 -15z m1105 -83 c16 -9
33 -16 37 -17 3 0 9 -2 12 -5 5 -6 -18 -117 -26 -126 -3 -2 -37 1 -77 7 l-71
12 0 38 c0 21 7 56 16 78 14 36 18 39 47 34 18 -3 45 -12 62 -21z m910 -2 c-3
-5 -19 -10 -35 -10 -16 0 -32 5 -35 10 -4 6 10 10 35 10 25 0 39 -4 35 -10z
m200 -13 c10 -5 27 -10 37 -11 23 -1 23 -2 14 -54 -5 -35 -10 -42 -24 -38 -9
3 -45 10 -80 17 -34 6 -65 15 -68 20 -3 5 1 27 7 49 l13 41 40 -7 c23 -3 50
-11 61 -17z m139 3 c18 -6 26 -17 26 -32 0 -37 -11 -46 -47 -36 -34 9 -41 25
-23 59 12 22 11 22 44 9z m-1480 -16 c24 -9 9 -24 -24 -24 -31 0 -48 15 -28
23 19 8 34 8 52 1z m2425 -11 c18 -8 31 -16 29 -19 -6 -6 -110 17 -122 27 -15
13 57 7 93 -8z m-2059 -69 c0 -7 -5 -14 -11 -14 -9 0 -47 17 -57 25 -1 1 3 14
9 29 l12 26 24 -26 c12 -14 23 -32 23 -40z m2847 29 c-3 -10 -5 -4 -5 12 0 17
2 24 5 18 2 -7 2 -21 0 -30z m-4142 -43 c0 -9 -11 -16 -27 -18 -30 -4 -36 6
-16 26 16 16 43 11 43 -8z m3767 -30 c3 -19 0 -31 -10 -35 -20 -8 -32 3 -32
29 0 45 36 51 42 6z m82 -35 c23 -17 15 -59 -14 -75 -16 -8 -22 -6 -34 12 -8
13 -14 35 -14 51 0 21 5 27 22 27 11 0 29 -7 40 -15z m293 -17 c-3 -7 -5 -2
-5 12 0 14 2 19 5 13 2 -7 2 -19 0 -25z m-1191 -54 c11 -36 17 -67 12 -70 -24
-15 -59 9 -83 56 -35 69 -33 80 13 80 37 0 37 -1 58 -66z m-2839 49 c-4 -3 3
-11 16 -18 15 -8 24 -8 29 -1 4 6 11 -1 17 -16 5 -14 15 -29 20 -33 6 -3 11
-15 11 -26 0 -11 -4 -18 -9 -15 -5 3 -11 0 -14 -8 -3 -8 -25 -17 -48 -21 -49
-8 -65 8 -60 60 3 32 27 85 38 85 3 0 3 -3 0 -7z m4033 -48 c0 -19 -4 -35 -10
-35 -11 0 -14 53 -3 63 11 12 13 8 13 -28z m-2543 3 c-3 -8 -6 -5 -6 6 -1 11
2 17 5 13 3 -3 4 -12 1 -19z m206 -51 c21 -66 21 -66 0 -62 -10 2 -26 4 -35 4
-18 1 -58 67 -58 96 0 11 10 15 38 15 38 0 39 -1 55 -53z m-1855 36 c-10 -2
-26 -2 -35 0 -10 3 -2 5 17 5 19 0 27 -2 18 -5z m722 -44 c0 -11 5 -29 10 -40
6 -10 7 -19 3 -19 -10 1 -54 39 -72 63 -12 15 -10 17 23 17 30 0 36 -4 36 -21z
m3294 -196 c0 -175 -1 -191 -22 -230 -12 -23 -22 -49 -22 -57 0 -7 -7 -17 -16
-20 -36 -14 -51 -6 -68 37 -10 23 -26 60 -36 82 -42 92 -50 115 -50 148 0 19
7 40 15 47 9 7 15 23 13 34 -5 32 -38 24 -159 -37 -67 -33 -106 -48 -106 -39
0 12 101 64 217 111 67 28 182 94 200 116 27 32 33 -4 34 -192z m159 176 c-4
-13 -9 -17 -15 -11 -11 11 -3 32 12 32 4 0 6 -9 3 -21z m-52 -201 c-40 -141
-95 -309 -111 -338 -7 -13 -10 -12 -16 4 -4 12 7 58 30 125 21 58 53 152 70
208 18 57 36 106 39 110 4 3 7 16 7 28 0 12 3 25 8 29 19 19 10 -34 -27 -166z
m-5157 117 c-16 -25 -19 -26 -25 -9 -4 13 0 22 15 31 28 15 31 10 10 -22z
m2445 -22 c-5 -16 -12 -34 -14 -42 -7 -17 -31 1 -38 30 -4 14 1 23 16 29 40
16 47 13 36 -17z m854 -10 c-7 -2 -19 -2 -25 0 -7 3 -2 5 12 5 14 0 19 -2 13
-5z m-90 -10 c-7 -2 -19 -2 -25 0 -7 3 -2 5 12 5 14 0 19 -2 13 -5z m682 -5
c25 -7 45 -15 45 -20 0 -6 -100 19 -109 28 -8 7 18 4 64 -8z m-1171 -19 c68
-8 67 -8 -19 -3 -117 6 -115 6 -115 16 0 6 14 6 32 3 17 -4 63 -11 102 -16z
m423 15 c-3 -3 -12 -4 -19 -1 -8 3 -5 6 6 6 11 1 17 -2 13 -5z m-110 -10 c-3
-3 -12 -4 -19 -1 -8 3 -5 6 6 6 11 1 17 -2 13 -5z m-3087 -22 c0 -10 -26 -43
-70 -91 -98 -105 -161 -234 -187 -380 -17 -99 -51 -226 -52 -194 -2 40 38 248
59 313 33 100 86 187 169 276 83 89 81 87 81 76z m4515 -13 c30 -4 -15 -6
-114 -3 -90 2 -167 6 -170 9 -8 8 226 3 284 -6z m-3384 -196 c3 -15 -1 -47 -9
-70 -11 -36 -19 -44 -49 -52 -25 -7 -42 -7 -57 1 -36 19 -96 85 -96 107 0 24
42 56 90 68 50 13 113 -15 121 -54z m3546 15 c-3 -8 -6 -5 -6 6 -1 11 2 17 5
13 3 -3 4 -12 1 -19z m32 -136 c0 -24 -1 -25 -9 -7 -12 28 -12 47 0 40 6 -3
10 -18 9 -33z m-3426 -43 c56 -28 105 -56 109 -63 4 -6 8 -23 8 -38 0 -66 -34
-89 -85 -58 -35 22 -55 20 -55 -5 0 -25 -17 -25 -79 2 -37 16 -60 31 -57 39 3
7 10 48 16 93 9 59 16 81 27 81 8 0 60 -23 116 -51z m-229 15 c21 -8 20 -47
-2 -74 -20 -25 -41 -20 -77 20 -19 21 -19 22 5 41 26 19 47 23 74 13z m3686
-125 c0 -5 -4 -9 -10 -9 -5 0 -10 7 -10 16 0 8 5 12 10 9 6 -3 10 -10 10 -16z
m-3077 -169 c14 -55 -12 -80 -47 -44 -16 15 -22 84 -9 97 12 13 47 -20 56 -53z
m-1775 -48 c6 -18 -15 -14 -22 4 -4 10 -1 14 6 12 6 -2 14 -10 16 -16z m-148
-99 c0 -22 -17 -15 -44 18 -40 48 -33 70 9 29 19 -19 35 -40 35 -47z m220 22
c13 -14 19 -25 13 -25 -6 0 -18 11 -27 25 -9 14 -15 25 -13 25 2 0 14 -11 27
-25z m4138 -209 l37 -39 -33 19 c-18 10 -49 36 -70 58 l-37 39 33 -19 c18 -10
49 -36 70 -58z m-950 -28 c18 -11 31 -22 28 -25 -8 -8 -129 72 -145 96 -13 21
-7 18 34 -13 28 -20 65 -47 83 -58z m2525 17 c-3 -9 -8 -14 -10 -11 -3 3 -2 9
2 15 9 16 15 13 8 -4z m-4879 -221 c60 -7 112 -17 115 -20 3 -4 -10 -4 -29 -1
-19 4 -95 11 -167 17 -73 6 -143 15 -155 20 -29 12 84 4 236 -16z m1433 -172
c39 -22 94 -92 166 -212 87 -146 109 -206 122 -328 7 -64 7 -64 -30 -102 -31
-32 -37 -45 -37 -80 1 -24 -4 -43 -12 -46 -31 -12 -226 76 -313 142 -17 13
-36 24 -41 24 -5 0 -35 25 -68 56 -45 42 -51 51 -26 37 17 -9 32 -20 32 -24 0
-7 80 -42 85 -37 2 2 14 25 28 51 60 111 73 242 43 407 -22 120 -22 131 8 126
13 -2 33 -9 43 -14z m-1111 -64 c22 -24 53 -61 69 -83 15 -22 45 -58 66 -80
21 -22 42 -52 47 -66 15 -38 26 -245 14 -252 -5 -4 -12 10 -16 32 -7 44 -94
155 -227 290 -27 28 -69 87 -69 99 0 6 9 31 20 56 25 58 44 59 96 4z m830
-405 c-7 -7 -26 7 -26 19 0 6 6 6 15 -2 9 -7 13 -15 11 -17z m-380 -109 c15
-4 35 -2 45 5 10 6 21 11 25 11 3 0 4 -53 3 -117 -3 -93 0 -124 13 -148 23
-43 77 -122 126 -184 24 -30 50 -67 57 -82 14 -27 14 -28 -18 -34 -17 -3 -54
-11 -82 -16 -38 -8 -59 -7 -90 4 l-40 14 -8 88 c-8 90 -28 141 -106 274 -29
49 -31 58 -31 158 l0 105 40 -36 c22 -19 52 -39 66 -42z m3671 -550 c-3 -3
-12 -4 -19 -1 -8 3 -5 6 6 6 11 1 17 -2 13 -5z m-1211 -39 c4 -8 12 -15 20
-15 9 0 14 -11 14 -30 0 -36 -16 -39 -32 -5 -6 13 -20 27 -30 31 -15 4 -17 9
-7 20 15 18 28 18 35 -1z m-660 -19 c6 -13 8 -30 3 -37 -10 -17 -15 -11 -24
29 -8 37 5 43 21 8z m2229 -16 c3 -5 2 -10 -4 -10 -5 0 -13 5 -16 10 -3 6 -2
10 4 10 5 0 13 -4 16 -10z m145 -81 c27 -6 24 -7 -17 -3 -45 5 -53 3 -53 -11
0 -24 -24 -13 -28 13 -4 23 5 23 98 1z m-2353 -86 c-2 -16 -4 -3 -4 27 0 30 2
43 4 28 2 -16 2 -40 0 -55z m2420 71 c-3 -3 -12 -4 -19 -1 -8 3 -5 6 6 6 11 1
17 -2 13 -5z m-4197 -59 c0 -8 -2 -15 -4 -15 -2 0 -6 7 -10 15 -3 8 -1 15 4
15 6 0 10 -7 10 -15z m1670 -86 c-44 -11 -488 -24 -478 -14 9 9 221 22 388 22
93 1 116 -1 90 -8z m1344 4 c145 -7 167 -18 52 -27 -80 -6 -97 -18 -101 -73
-4 -60 -8 -62 -14 -8 -6 49 -7 50 -41 51 -19 1 -57 6 -85 12 -44 9 -158 16
-207 13 -25 -2 -41 -36 -28 -61 8 -15 7 -19 -2 -16 -7 2 -46 10 -85 17 -40 7
-73 17 -73 23 0 6 -5 4 -11 -4 -8 -12 -9 -9 -5 13 4 15 2 27 -4 27 -17 0 -11
28 8 33 27 7 446 8 596 0z m1230 -42 c-7 -7 -34 21 -34 36 0 10 6 8 19 -8 11
-13 18 -26 15 -28z m-1867 -93 c-2 -24 -4 -5 -4 42 0 47 2 66 4 43 2 -24 2
-62 0 -85z m-600 60 c-2 -13 -4 -5 -4 17 -1 22 1 32 4 23 2 -10 2 -28 0 -40z
m2341 46 c28 -6 30 -8 20 -28 -6 -11 -22 -34 -34 -49 -20 -23 -24 -25 -24 -10
-1 17 -1 17 -14 1 -14 -20 -36 -24 -36 -8 0 6 -10 10 -23 10 -13 0 -28 5 -35
12 -9 9 -12 9 -12 0 0 -8 -10 -11 -25 -8 -18 3 -28 -1 -35 -15 -16 -28 -27
-23 -34 16 -4 21 -13 35 -21 35 -21 0 -76 35 -68 43 8 9 300 9 341 1z m69 -46
c-3 -7 -5 -2 -5 12 0 14 2 19 5 13 2 -7 2 -19 0 -25z m-2452 2 c-3 -5 -16 -10
-28 -9 -20 1 -20 2 3 9 14 4 26 8 28 9 2 1 0 -3 -3 -9z m62 -52 c-2 -13 -4 -5
-4 17 -1 22 1 32 4 23 2 -10 2 -28 0 -40z m2507 -3 c24 -43 37 -64 74 -117 32
-45 32 -47 10 -43 -25 5 -50 33 -42 46 3 5 -15 42 -40 84 -26 41 -46 77 -46
81 0 10 27 -21 44 -51z m-2704 25 c0 -5 -5 -10 -11 -10 -5 0 -7 5 -4 10 3 6 8
10 11 10 2 0 4 -4 4 -10z m1047 -26 c-3 -3 -12 -4 -19 -1 -8 3 -5 6 6 6 11 1
17 -2 13 -5z m120 -30 c49 -15 109 -31 136 -37 26 -6 47 -17 47 -23 0 -9 -15
-8 -57 6 -32 10 -92 29 -133 41 -41 12 -79 26 -84 31 -15 12 -4 10 91 -18z
m-1420 0 c-3 -3 -12 -4 -19 -1 -8 3 -5 6 6 6 11 1 17 -2 13 -5z m2623 -29 c10
-12 9 -16 -4 -21 -9 -3 -23 -3 -32 0 -13 5 -14 9 -4 21 7 8 16 15 20 15 4 0
13 -7 20 -15z m-1900 -237 l0 -97 -67 5 c-38 3 -78 10 -90 16 -47 23 -19 99
41 114 15 3 26 14 28 27 2 14 11 23 25 25 12 2 27 10 34 18 21 25 29 -3 29
-108z m20 -186 c1 -30 17 -55 42 -65 9 -3 34 -17 56 -31 34 -21 43 -34 55 -78
21 -79 36 -148 43 -198 3 -25 12 -63 20 -85 7 -22 18 -71 24 -110 6 -38 15
-81 20 -95 16 -44 49 -417 60 -680 6 -140 15 -358 20 -485 5 -126 10 -317 10
-423 0 -230 1 -229 -99 -106 -37 45 -81 99 -98 120 -127 154 -119 128 -143
444 -11 151 -24 289 -29 305 -10 41 -1 1526 10 1519 5 -3 9 -17 9 -32z m359
-246 c32 -20 62 -36 66 -36 4 0 30 -16 56 -35 27 -19 52 -35 57 -35 7 0 65
-48 134 -110 53 -48 106 -369 111 -667 1 -72 -1 -134 -5 -139 -10 -9 -379 369
-395 404 -7 15 -12 39 -13 54 0 25 -34 180 -76 348 -9 36 -26 108 -39 159 -13
52 -22 98 -19 102 7 12 60 -7 123 -45z m-581 -288 c19 -19 14 -65 -15 -121
-52 -102 -123 -160 -228 -186 -26 -6 -57 -18 -68 -25 -12 -8 -50 -17 -85 -21
-53 -6 -66 -4 -83 11 -23 21 -24 37 -3 97 9 28 28 56 46 70 16 12 41 32 55 45
30 28 185 103 220 107 14 1 28 7 32 13 12 20 111 28 129 10z m-1341 -370 c-2
-24 -4 -7 -4 37 0 44 2 63 4 43 2 -21 2 -57 0 -80z m4206 -485 c3 -10 10 -47
17 -83 6 -36 15 -81 20 -100 11 -40 18 -118 39 -430 21 -301 22 -360 24 -835
2 -432 -1 -562 -18 -760 -3 -33 -8 -118 -11 -190 -3 -71 -10 -159 -15 -195 -5
-36 -14 -128 -19 -205 -5 -77 -11 -165 -14 -195 -3 -30 -11 -111 -17 -180 -12
-146 -24 -206 -44 -226 -8 -8 -21 -25 -30 -37 -21 -30 -33 -13 -40 58 -4 33
-13 76 -21 95 -35 87 -86 678 -100 1172 -6 219 -4 254 30 588 24 221 37 436
41 636 11 598 43 864 104 864 6 0 11 9 11 20 0 25 37 27 43 3z m-5562 -988
c23 -44 68 -132 101 -195 33 -63 68 -124 77 -135 9 -11 30 -45 46 -75 15 -30
47 -84 70 -120 23 -36 45 -74 49 -85 7 -21 8 -117 3 -2040 -3 -1056 -5 -1203
-25 -1505 -11 -184 -26 -468 -32 -630 -6 -162 -13 -333 -16 -380 -6 -81 -7
-83 -18 -50 -7 19 -28 69 -48 110 -42 87 -163 396 -177 455 -6 22 -22 74 -37
115 -29 83 -30 96 -54 760 -49 1410 -52 3494 -5 3829 4 24 10 40 15 35 5 -5
28 -45 51 -89z m4604 -3837 c8 -5 16 -39 19 -80 7 -74 34 -178 47 -178 4 0 5
24 3 52 -8 84 13 45 25 -47 11 -86 39 -387 50 -550 4 -55 4 -105 0 -110 -5 -6
-10 -55 -13 -108 -4 -54 -11 -119 -17 -144 -5 -26 -8 -57 -4 -70 4 -16 -1 -25
-16 -33 -11 -7 -25 -25 -31 -40 -15 -45 -53 -59 -108 -40 -74 25 -73 23 -66
111 5 65 4 79 -8 79 -11 0 -13 9 -9 40 3 22 0 60 -7 85 -24 87 -38 435 -20
535 10 63 13 90 28 326 4 64 12 117 20 126 6 8 18 33 26 54 8 21 15 33 15 27
2 -23 21 -14 21 10 1 20 2 19 17 -8 9 -16 21 -33 28 -37z m62 30 c-3 -8 -6 -5
-6 6 -1 11 2 17 5 13 3 -3 4 -12 1 -19z m13 -88 c0 -5 -4 -10 -10 -10 -5 0
-10 5 -10 10 0 6 5 10 10 10 6 0 10 -4 10 -10z m10 -55 c0 -8 -4 -17 -10 -20
-6 -4 -10 5 -10 20 0 15 4 24 10 20 6 -3 10 -12 10 -20z m67 -847 c-3 -7 -5
-2 -5 12 0 14 2 19 5 13 2 -7 2 -19 0 -25z m13 -34 c0 -3 -7 -12 -15 -20 -16
-17 -18 -14 -9 10 6 15 24 23 24 10z m-100 -444 c0 -11 -7 -20 -15 -20 -18 0
-19 12 -3 28 16 16 18 15 18 -8z m-2040 -2374 c0 -3 -4 -8 -10 -11 -5 -3 -10
-1 -10 4 0 6 5 11 10 11 6 0 10 -2 10 -4z m35 -146 c-3 -41 -15 -51 -15 -13 0
25 6 43 16 43 1 0 1 -14 -1 -30z m12 -132 c-2 -13 -4 -5 -4 17 -1 22 1 32 4
23 2 -10 2 -28 0 -40z m-2040 -350 c-3 -8 -6 -5 -6 6 -1 11 2 17 5 13 3 -3 4
-12 1 -19z m-30 -80 c-3 -8 -6 -5 -6 6 -1 11 2 17 5 13 3 -3 4 -12 1 -19z
m4573 -33 c0 -8 -4 -15 -10 -15 -5 0 -10 7 -10 15 0 8 5 15 10 15 6 0 10 -7
10 -15z m-2389 -89 c5 -6 9 -14 9 -20 0 -5 -7 -1 -15 10 -8 10 -14 28 -14 39
l1 20 5 -20 c3 -11 9 -24 14 -29z m29 -169 c-7 -17 -9 -10 -9 28 1 43 2 46 9
22 5 -16 5 -38 0 -50z"/>
<path d="M12021 6184 c0 -11 3 -14 6 -6 3 7 2 16 -1 19 -3 4 -6 -2 -5 -13z"/>
<path d="M11857 5233 c-12 -11 -8 -23 8 -23 8 0 15 7 15 15 0 16 -12 20 -23 8z"/>
<path d="M8155 6140 c-3 -5 -1 -10 4 -10 6 0 11 5 11 10 0 6 -2 10 -4 10 -3 0
-8 -4 -11 -10z"/>
<path d="M10191 1452 c2 -33 2 -34 6 -8 4 22 7 26 14 15 7 -12 9 -11 9 2 0 9
-7 19 -15 23 -12 4 -15 -3 -14 -32z"/>
</g>
</svg>
